<svg width="32" height="32" viewBox="0 0 32 32" fill="none" xmlns="http://www.w3.org/2000/svg">
<path d="M22.6667 4.66668C22.6667 4.48987 22.5964 4.3203 22.4714 4.19527C22.3464 4.07025 22.1768 4.00001 22 4.00001H18.6667C16.9882 3.9164 15.3448 4.50053 14.0956 5.62478C12.8465 6.74903 12.093 8.322 12 10V13.6H8.66667C8.48986 13.6 8.32029 13.6702 8.19526 13.7953C8.07024 13.9203 8 14.0899 8 14.2667V17.7333C8 17.9102 8.07024 18.0797 8.19526 18.2047C8.32029 18.3298 8.48986 18.4 8.66667 18.4H12V27.3333C12 27.5102 12.0702 27.6797 12.1953 27.8047C12.3203 27.9298 12.4899 28 12.6667 28H16.6667C16.8435 28 17.013 27.9298 17.1381 27.8047C17.2631 27.6797 17.3333 27.5102 17.3333 27.3333V18.4H20.8267C20.9749 18.4021 21.1197 18.3548 21.238 18.2654C21.3563 18.1761 21.4415 18.0499 21.48 17.9067L22.44 14.44C22.4665 14.3415 22.4701 14.2382 22.4504 14.1381C22.4308 14.038 22.3884 13.9438 22.3265 13.8626C22.2647 13.7815 22.1851 13.7156 22.0938 13.6701C22.0025 13.6246 21.902 13.6006 21.8 13.6H17.3333V10C17.3665 9.66998 17.5215 9.36416 17.768 9.14227C18.0146 8.92038 18.335 8.79835 18.6667 8.80001H22C22.1768 8.80001 22.3464 8.72977 22.4714 8.60475C22.5964 8.47972 22.6667 8.31015 22.6667 8.13334V4.66668Z" fill="white"/>
</svg>
